<?xml version="1.0" encoding="UTF-8" standalone="no"?>
<!-- Generator: Adobe Illustrator 27.5.0, SVG Export Plug-In . SVG Version: 6.00 Build 0)  -->

<svg
   version="1.1"
   x="0px"
   y="0px"
   viewBox="0 0 20 20"
   xml:space="preserve"
   id="svg51"
   width="20"
   height="20"
   xmlns="http://www.w3.org/2000/svg"
   xmlns:svg="http://www.w3.org/2000/svg"><defs
   id="defs51" />&#10;&#10;<g
   id="OBJECTS"
   transform="matrix(0.08045576,0,0,0.08045576,-10.170352,-8.1533078)">&#10;	<g
   id="g50">&#10;		<g
   id="g26">&#10;			<g
   id="g1">&#10;				<path
   style="fill:#eaceb5"
   d="m 247.097,142.74 c -1.002,0 -1.814,-0.812 -1.814,-1.814 v -17.149 c 0,-1.002 0.813,-1.814 1.814,-1.814 h 18.282 c 1.002,0 1.814,0.813 1.814,1.814 v 11.325 c 0,1.002 -0.813,1.814 -1.814,1.814 h -10.031 c -1.002,0 -1.814,-0.812 -1.814,-1.814 v -5.501 c 0,-1.002 0.813,-1.814 1.814,-1.814 1.002,0 1.814,0.813 1.814,1.814 v 3.686 h 6.402 v -7.696 H 248.91 v 15.335 c 0.001,1.002 -0.811,1.814 -1.813,1.814 z"
   id="path1" />&#10;			</g>&#10;			<g
   id="g2">&#10;				<path
   style="fill:#eaceb5"
   d="m 222.713,146.967 c -0.801,0 -1.534,-0.535 -1.751,-1.345 l -4.438,-16.565 c -0.26,-0.968 0.315,-1.963 1.283,-2.222 l 17.659,-4.732 c 0.464,-0.126 0.96,-0.06 1.377,0.181 0.417,0.24 0.721,0.637 0.845,1.101 l 2.931,10.939 c 0.259,0.968 -0.315,1.962 -1.283,2.222 l -9.689,2.596 c -0.467,0.124 -0.961,0.06 -1.377,-0.181 -0.417,-0.241 -0.721,-0.637 -0.845,-1.102 l -1.423,-5.313 c -0.259,-0.968 0.315,-1.962 1.284,-2.222 0.964,-0.259 1.962,0.315 2.222,1.284 l 0.953,3.56 6.184,-1.657 -1.992,-7.434 -14.154,3.793 3.969,14.813 c 0.259,0.968 -0.315,1.963 -1.283,2.222 -0.158,0.042 -0.316,0.062 -0.472,0.062 z"
   id="path2" />&#10;			</g>&#10;			<g
   id="g3">&#10;				<path
   style="fill:#eaceb5"
   d="m 200.26,157.359 c -0.627,0 -1.236,-0.326 -1.573,-0.908 l -8.575,-14.852 c -0.241,-0.417 -0.306,-0.912 -0.181,-1.376 0.124,-0.465 0.428,-0.861 0.845,-1.102 l 15.832,-9.141 c 0.868,-0.503 1.977,-0.204 2.479,0.664 l 5.664,9.808 c 0.24,0.417 0.306,0.912 0.181,1.377 -0.125,0.465 -0.429,0.861 -0.845,1.102 l -8.687,5.015 c -0.867,0.501 -1.977,0.204 -2.479,-0.664 l -2.75,-4.764 c -0.501,-0.868 -0.204,-1.978 0.664,-2.479 0.868,-0.501 1.978,-0.203 2.478,0.664 l 1.843,3.193 5.544,-3.201 -3.849,-6.666 -12.689,7.327 7.668,13.28 c 0.501,0.868 0.204,1.977 -0.664,2.479 -0.287,0.166 -0.598,0.244 -0.906,0.244 z"
   id="path3" />&#10;			</g>&#10;			<g
   id="g4">&#10;				<path
   style="fill:#eaceb5"
   d="m 181.256,173.21 c -0.464,0 -0.928,-0.177 -1.283,-0.532 l -12.126,-12.126 c -0.708,-0.708 -0.708,-1.857 0,-2.565 l 12.926,-12.927 c 0.708,-0.709 1.857,-0.708 2.566,-0.001 l 8.009,8.008 c 0.34,0.341 0.532,0.802 0.532,1.283 0,0.481 -0.191,0.943 -0.532,1.283 l -7.093,7.092 c -0.709,0.707 -1.857,0.708 -2.566,-0.001 l -3.89,-3.89 c -0.709,-0.708 -0.709,-1.857 0,-2.565 0.708,-0.709 1.857,-0.709 2.565,0 l 2.607,2.607 4.527,-4.526 -5.443,-5.442 -10.36,10.361 10.843,10.844 c 0.709,0.708 0.709,1.857 0,2.565 -0.353,0.355 -0.818,0.532 -1.282,0.532 z"
   id="path4" />&#10;			</g>&#10;			<g
   id="g5">&#10;				<path
   style="fill:#eaceb5"
   d="m 167.002,193.44 c -0.308,0 -0.62,-0.079 -0.905,-0.244 l -14.852,-8.575 c -0.868,-0.501 -1.164,-1.611 -0.664,-2.479 l 9.14,-15.833 c 0.24,-0.417 0.636,-0.721 1.102,-0.845 0.464,-0.126 0.96,-0.06 1.376,0.181 l 9.809,5.663 c 0.417,0.241 0.721,0.637 0.845,1.102 0.124,0.465 0.059,0.96 -0.181,1.377 l -5.016,8.687 c -0.241,0.417 -0.637,0.721 -1.102,0.845 -0.465,0.125 -0.96,0.06 -1.376,-0.181 l -4.764,-2.751 c -0.868,-0.501 -1.164,-1.61 -0.664,-2.478 0.501,-0.868 1.611,-1.166 2.478,-0.664 l 3.193,1.843 3.201,-5.544 -6.666,-3.849 -7.326,12.69 13.28,7.668 c 0.868,0.501 1.165,1.61 0.664,2.478 -0.334,0.583 -0.944,0.909 -1.572,0.909 z"
   id="path5" />&#10;			</g>&#10;			<g
   id="g6">&#10;				<path
   style="fill:#eaceb5"
   d="m 158.475,216.668 c -0.155,0 -0.314,-0.02 -0.471,-0.063 l -16.564,-4.438 c -0.968,-0.259 -1.542,-1.254 -1.283,-2.222 l 4.73,-17.659 c 0.125,-0.465 0.429,-0.861 0.845,-1.102 0.417,-0.242 0.912,-0.308 1.377,-0.181 l 10.94,2.931 c 0.465,0.124 0.861,0.428 1.102,0.845 0.241,0.416 0.306,0.912 0.181,1.376 l -2.596,9.689 c -0.124,0.465 -0.428,0.861 -0.845,1.102 -0.418,0.241 -0.912,0.306 -1.377,0.181 l -5.314,-1.425 c -0.968,-0.26 -1.541,-1.254 -1.282,-2.222 0.26,-0.967 1.257,-1.542 2.222,-1.282 l 3.562,0.955 1.656,-6.184 -7.435,-1.992 -3.792,14.154 14.812,3.969 c 0.968,0.259 1.542,1.254 1.283,2.222 -0.217,0.811 -0.95,1.346 -1.751,1.346 z"
   id="path6" />&#10;			</g>&#10;			<g
   id="g7">&#10;				<path
   style="fill:#eaceb5"
   d="m 156.246,241.312 h -17.148 c -1.002,0 -1.814,-0.813 -1.814,-1.814 l -0.002,-18.281 c 0,-0.481 0.191,-0.943 0.531,-1.283 0.34,-0.34 0.802,-0.532 1.283,-0.532 h 11.326 c 1.002,0 1.814,0.813 1.814,1.814 l 0.001,10.03 c 0,0.481 -0.191,0.943 -0.532,1.283 -0.34,0.34 -0.802,0.532 -1.283,0.532 v 0 l -5.503,-0.001 c -1.001,0 -1.814,-0.813 -1.814,-1.814 0,-1.002 0.813,-1.814 1.814,-1.814 v 0 h 3.688 l -0.001,-6.402 -7.698,0.001 0.002,14.653 h 15.334 c 1.002,0 1.814,0.812 1.814,1.814 0.003,1.001 -0.81,1.814 -1.812,1.814 z"
   id="path7" />&#10;			</g>&#10;			<g
   id="g8">&#10;				<path
   style="fill:#eaceb5"
   d="m 143.907,270.133 c -0.801,0 -1.534,-0.534 -1.751,-1.345 l -4.733,-17.659 c -0.125,-0.464 -0.059,-0.959 0.181,-1.376 0.241,-0.417 0.637,-0.721 1.102,-0.845 l 10.94,-2.933 c 0.966,-0.261 1.962,0.314 2.222,1.283 l 2.597,9.689 c 0.125,0.464 0.059,0.96 -0.181,1.376 -0.241,0.417 -0.637,0.722 -1.102,0.846 l -5.314,1.424 c -0.969,0.26 -1.963,-0.315 -2.222,-1.283 -0.26,-0.968 0.314,-1.963 1.283,-2.222 l 3.561,-0.954 -1.658,-6.185 -7.435,1.993 3.794,14.154 14.812,-3.97 c 0.967,-0.263 1.962,0.314 2.222,1.282 0.259,0.968 -0.315,1.963 -1.283,2.222 l -16.564,4.439 c -0.157,0.044 -0.315,0.064 -0.471,0.064 z"
   id="path8" />&#10;			</g>&#10;			<g
   id="g9">&#10;				<path
   style="fill:#eaceb5"
   d="m 156.016,296.725 c -0.627,0 -1.236,-0.325 -1.573,-0.907 l -9.142,-15.83 c -0.241,-0.417 -0.306,-0.912 -0.182,-1.377 0.125,-0.465 0.429,-0.861 0.846,-1.103 l 9.809,-5.664 c 0.417,-0.24 0.911,-0.307 1.377,-0.181 0.464,0.124 0.861,0.429 1.102,0.846 l 5.016,8.687 c 0.241,0.416 0.306,0.911 0.181,1.377 -0.125,0.465 -0.429,0.86 -0.846,1.102 l -4.765,2.75 c -0.868,0.5 -1.978,0.203 -2.478,-0.664 -0.5,-0.868 -0.203,-1.978 0.665,-2.479 l 3.192,-1.843 -3.201,-5.543 -6.666,3.849 7.328,12.688 13.28,-7.667 c 0.868,-0.501 1.977,-0.203 2.478,0.664 0.501,0.868 0.204,1.978 -0.664,2.478 l -14.851,8.575 c -0.286,0.164 -0.598,0.242 -0.906,0.242 z"
   id="path9" />&#10;			</g>&#10;			<g
   id="g10">&#10;				<path
   style="fill:#eaceb5"
   d="m 174.591,319.277 c -0.464,0 -0.928,-0.177 -1.283,-0.531 L 160.38,305.821 c -0.34,-0.341 -0.532,-0.802 -0.532,-1.283 0,-0.48 0.191,-0.942 0.532,-1.282 l 8.009,-8.01 c 0.68,-0.68 1.885,-0.68 2.565,0 l 7.092,7.093 c 0.34,0.34 0.532,0.802 0.532,1.282 0,0.481 -0.191,0.943 -0.532,1.283 l -3.89,3.889 c -0.708,0.709 -1.857,0.709 -2.565,0 -0.708,-0.709 -0.708,-1.857 0,-2.565 l 2.606,-2.606 -4.526,-4.526 -5.443,5.443 10.362,10.359 10.843,-10.843 c 0.708,-0.709 1.858,-0.709 2.565,0 0.709,0.709 0.709,1.856 0,2.565 l -12.126,12.126 c -0.352,0.355 -0.817,0.531 -1.281,0.531 z"
   id="path10" />&#10;			</g>&#10;			<g
   id="g11">&#10;				<path
   style="fill:#eaceb5"
   d="m 198.37,336.255 c -0.308,0 -0.62,-0.078 -0.906,-0.243 l -15.833,-9.139 c -0.416,-0.241 -0.72,-0.637 -0.845,-1.101 -0.125,-0.465 -0.06,-0.96 0.181,-1.377 l 5.663,-9.81 c 0.24,-0.416 0.636,-0.721 1.101,-0.845 0.463,-0.126 0.96,-0.061 1.377,0.181 l 8.687,5.016 c 0.868,0.502 1.165,1.61 0.664,2.479 l -2.75,4.765 c -0.501,0.867 -1.61,1.165 -2.478,0.664 -0.868,-0.501 -1.165,-1.61 -0.664,-2.479 l 1.843,-3.192 -5.545,-3.202 -3.849,6.667 12.69,7.326 7.668,-13.281 c 0.5,-0.868 1.61,-1.165 2.478,-0.665 0.868,0.502 1.165,1.611 0.664,2.479 l -8.574,14.852 c -0.335,0.58 -0.945,0.905 -1.572,0.905 z"
   id="path11" />&#10;			</g>&#10;			<g
   id="g12">&#10;				<path
   style="fill:#eaceb5"
   d="m 225.737,346.499 c -0.155,0 -0.314,-0.021 -0.471,-0.064 l -17.659,-4.729 c -0.465,-0.124 -0.861,-0.428 -1.102,-0.845 -0.241,-0.416 -0.306,-0.912 -0.181,-1.377 l 2.931,-10.94 c 0.124,-0.465 0.429,-0.861 0.845,-1.103 0.416,-0.239 0.91,-0.306 1.377,-0.181 l 9.689,2.596 c 0.968,0.259 1.542,1.254 1.283,2.222 l -1.423,5.315 c -0.26,0.968 -1.256,1.543 -2.222,1.283 -0.968,-0.259 -1.542,-1.254 -1.283,-2.222 l 0.954,-3.563 -6.184,-1.656 -1.992,7.435 14.154,3.791 3.969,-14.812 c 0.259,-0.969 1.254,-1.545 2.222,-1.283 0.968,0.26 1.542,1.255 1.283,2.222 l -4.439,16.564 c -0.217,0.812 -0.95,1.347 -1.751,1.347 z"
   id="path12" />&#10;			</g>&#10;			<g
   id="g13">&#10;				<path
   style="fill:#eaceb5"
   d="m 236.537,349.313 c -0.481,0 -0.943,-0.191 -1.283,-0.531 -0.34,-0.341 -0.531,-0.802 -0.531,-1.283 v -11.327 c 0,-1.002 0.812,-1.814 1.814,-1.814 h 10.03 c 1.002,0 1.814,0.812 1.814,1.814 l 0.002,5.501 c 10e-4,1.002 -0.812,1.815 -1.814,1.815 h -10e-4 c -1.002,0 -1.813,-0.811 -1.814,-1.814 l -0.001,-3.688 h -6.401 v 7.698 l 14.653,-0.002 v -15.334 c 0,-1.002 0.813,-1.814 1.814,-1.814 1.002,0 1.814,0.813 1.814,1.814 v 17.147 c 0,1.002 -0.812,1.815 -1.814,1.815 z"
   id="path13" />&#10;			</g>&#10;			<g
   id="g14">&#10;				<path
   style="fill:#eaceb5"
   d="m 265.98,349.232 c -0.316,0 -0.629,-0.082 -0.908,-0.242 -0.416,-0.241 -0.721,-0.637 -0.844,-1.103 l -2.932,-10.94 c -0.125,-0.465 -0.061,-0.96 0.18,-1.377 0.242,-0.416 0.637,-0.721 1.102,-0.845 l 9.689,-2.596 c 0.967,-0.263 1.963,0.315 2.221,1.282 l 1.426,5.313 c 0.26,0.968 -0.315,1.963 -1.281,2.223 -0.973,0.262 -1.965,-0.315 -2.223,-1.282 l -0.957,-3.563 -6.184,1.657 1.992,7.436 14.154,-3.794 -3.969,-14.813 c -0.26,-0.969 0.314,-1.963 1.283,-2.222 0.967,-0.263 1.963,0.315 2.223,1.282 l 4.438,16.565 c 0.26,0.968 -0.314,1.962 -1.283,2.222 l -17.658,4.733 c -0.154,0.045 -0.312,0.064 -0.469,0.064 z"
   id="path14" />&#10;			</g>&#10;			<g
   id="g15">&#10;				<path
   style="fill:#eaceb5"
   d="m 294.398,341.536 c -0.156,0 -0.314,-0.021 -0.469,-0.061 -0.465,-0.124 -0.861,-0.429 -1.102,-0.846 l -5.664,-9.811 c -0.5,-0.867 -0.201,-1.977 0.666,-2.479 l 8.684,-5.014 c 0.869,-0.502 1.977,-0.203 2.478,0.663 l 2.752,4.764 c 0.502,0.868 0.205,1.978 -0.662,2.479 -0.869,0.502 -1.979,0.204 -2.479,-0.662 l -1.846,-3.194 -5.543,3.201 3.848,6.667 12.69,-7.328 -7.666,-13.281 c -0.502,-0.868 -0.203,-1.977 0.664,-2.478 0.869,-0.501 1.977,-0.204 2.478,0.665 l 8.574,14.853 c 0.5,0.868 0.203,1.977 -0.664,2.478 l -15.832,9.143 c -0.278,0.159 -0.59,0.241 -0.907,0.241 z"
   id="path15" />&#10;			</g>&#10;			<g
   id="g16">&#10;				<path
   style="fill:#eaceb5"
   d="m 319.857,326.746 v 0 c -0.48,0 -0.943,-0.191 -1.283,-0.531 l -8.008,-8.011 c -0.707,-0.709 -0.707,-1.857 0,-2.565 l 7.092,-7.092 c 0.709,-0.709 1.857,-0.709 2.566,0 l 3.891,3.889 c 0.709,0.708 0.709,1.858 0,2.566 -0.707,0.709 -1.857,0.709 -2.566,0 l -2.607,-2.605 -4.525,4.525 5.441,5.444 10.361,-10.362 -10.844,-10.844 c -0.709,-0.708 -0.709,-1.857 0,-2.565 0.709,-0.708 1.857,-0.708 2.566,0 l 12.125,12.126 c 0.709,0.709 0.709,1.857 0,2.565 l -12.926,12.93 c -0.339,0.339 -0.802,0.53 -1.283,0.53 z"
   id="path16" />&#10;			</g>&#10;			<g
   id="g17">&#10;				<path
   style="fill:#eaceb5"
   d="m 340.621,305.871 c -0.316,0 -0.629,-0.082 -0.906,-0.243 l -9.81,-5.665 c -0.867,-0.501 -1.164,-1.61 -0.664,-2.478 l 5.016,-8.685 c 0.502,-0.867 1.609,-1.167 2.479,-0.665 l 4.766,2.749 c 0.867,0.501 1.166,1.61 0.664,2.479 -0.5,0.868 -1.611,1.165 -2.477,0.665 l -3.195,-1.843 -3.201,5.544 6.666,3.85 7.326,-12.691 -13.281,-7.668 c -0.867,-0.501 -1.164,-1.61 -0.664,-2.479 0.502,-0.867 1.607,-1.166 2.479,-0.664 l 14.852,8.574 c 0.867,0.502 1.164,1.61 0.664,2.479 l -9.139,15.836 c -0.24,0.416 -0.637,0.721 -1.102,0.845 -0.156,0.041 -0.315,0.06 -0.473,0.06 z"
   id="path17" />&#10;			</g>&#10;			<g
   id="g18">&#10;				<path
   style="fill:#eaceb5"
   d="m 355.275,280.333 c -0.158,0 -0.316,-0.021 -0.471,-0.061 l -10.939,-2.935 c -0.969,-0.259 -1.543,-1.254 -1.283,-2.222 l 2.596,-9.686 c 0.258,-0.968 1.252,-1.547 2.221,-1.283 l 5.315,1.422 c 0.969,0.259 1.543,1.254 1.283,2.221 -0.258,0.969 -1.254,1.545 -2.221,1.284 l -3.563,-0.952 -1.656,6.183 7.436,1.993 3.789,-14.154 -14.811,-3.971 c -0.969,-0.259 -1.543,-1.254 -1.283,-2.222 0.26,-0.967 1.258,-1.545 2.223,-1.282 l 16.563,4.439 c 0.969,0.26 1.543,1.254 1.283,2.222 l -4.729,17.66 c -0.125,0.465 -0.428,0.861 -0.846,1.102 -0.278,0.16 -0.592,0.242 -0.907,0.242 z"
   id="path18" />&#10;			</g>&#10;			<g
   id="g19">&#10;				<path
   style="fill:#eaceb5"
   d="m 362.818,251.873 v 0 l -11.326,-0.002 c -1.002,0 -1.814,-0.813 -1.814,-1.814 v -10.03 c 0,-1.002 0.813,-1.814 1.814,-1.814 l 5.502,-0.001 c 1.002,0 1.815,0.813 1.815,1.814 0,1.002 -0.813,1.814 -1.815,1.814 l -3.688,0.001 v 6.401 l 7.697,0.002 -0.002,-14.654 -15.334,-0.001 c -1.002,0 -1.815,-0.813 -1.815,-1.814 0,-1.002 0.813,-1.814 1.815,-1.814 v 0 l 17.148,10e-4 c 1.002,0 1.815,0.812 1.815,1.814 l 0.002,18.283 c 0,0.481 -0.191,0.943 -0.531,1.283 -0.339,0.34 -0.8,0.531 -1.283,0.531 z"
   id="path19" />&#10;			</g>&#10;			<g
   id="g20">&#10;				<path
   style="fill:#eaceb5"
   d="m 351.799,225.359 c -0.803,0 -1.535,-0.535 -1.752,-1.345 l -2.598,-9.688 c -0.258,-0.967 0.315,-1.962 1.283,-2.222 l 5.315,-1.425 c 0.971,-0.26 1.963,0.314 2.223,1.282 0.26,0.968 -0.314,1.962 -1.283,2.222 l -3.563,0.956 1.658,6.183 7.436,-1.991 -3.795,-14.155 -14.813,3.968 c -0.973,0.262 -1.963,-0.315 -2.221,-1.283 -0.26,-0.968 0.314,-1.962 1.281,-2.222 l 16.564,-4.438 c 0.969,-0.263 1.963,0.316 2.223,1.282 l 4.734,17.66 c 0.125,0.465 0.059,0.96 -0.182,1.378 -0.24,0.416 -0.637,0.721 -1.101,0.845 l -10.941,2.93 c -0.156,0.043 -0.314,0.063 -0.468,0.063 z"
   id="path20" />&#10;			</g>&#10;			<g
   id="g21">&#10;				<path
   style="fill:#eaceb5"
   d="m 345.234,199.672 c -0.627,0 -1.236,-0.325 -1.574,-0.907 l -5.014,-8.686 c -0.5,-0.868 -0.205,-1.977 0.664,-2.478 l 4.764,-2.753 c 0.865,-0.5 1.977,-0.205 2.479,0.664 0.502,0.868 0.205,1.977 -0.664,2.479 l -3.193,1.845 3.201,5.544 6.668,-3.848 -7.33,-12.69 -13.279,7.667 c -0.869,0.502 -1.977,0.203 -2.478,-0.664 -0.5,-0.868 -0.203,-1.977 0.664,-2.478 l 14.852,-8.574 c 0.869,-0.503 1.977,-0.203 2.477,0.664 l 9.145,15.832 c 0.242,0.417 0.307,0.913 0.182,1.377 -0.123,0.465 -0.428,0.861 -0.846,1.102 l -9.809,5.662 c -0.29,0.164 -0.602,0.242 -0.909,0.242 z"
   id="path21" />&#10;			</g>&#10;			<g
   id="g22">&#10;				<path
   style="fill:#eaceb5"
   d="m 332.242,176.559 c -0.465,0 -0.928,-0.177 -1.283,-0.531 l -7.092,-7.091 c -0.709,-0.709 -0.709,-1.857 -0.002,-2.565 l 3.891,-3.893 c 0.709,-0.71 1.857,-0.708 2.566,-0.001 0.709,0.708 0.709,1.857 0.002,2.566 l -2.609,2.609 4.527,4.526 5.445,-5.443 -10.365,-10.359 -10.842,10.842 c -0.709,0.708 -1.858,0.708 -2.566,0 -0.707,-0.709 -0.707,-1.858 0,-2.566 l 12.125,-12.125 c 0.709,-0.709 1.857,-0.708 2.566,-0.001 l 12.93,12.925 c 0.342,0.34 0.531,0.802 0.531,1.283 0,0.481 -0.189,0.943 -0.531,1.283 l -8.01,8.009 c -0.355,0.354 -0.818,0.532 -1.283,0.532 z"
   id="path22" />&#10;			</g>&#10;			<g
   id="g23">&#10;				<path
   style="fill:#eaceb5"
   d="m 313.711,157.596 c -0.309,0 -0.619,-0.078 -0.906,-0.244 l -8.686,-5.014 c -0.867,-0.5 -1.166,-1.61 -0.664,-2.478 l 2.75,-4.766 c 0.5,-0.869 1.607,-1.167 2.479,-0.665 0.867,0.501 1.166,1.611 0.664,2.479 l -1.844,3.195 5.545,3.2 3.85,-6.667 -12.691,-7.325 -7.666,13.279 c -0.502,0.867 -1.609,1.166 -2.48,0.664 -0.867,-0.501 -1.164,-1.61 -0.664,-2.478 l 8.574,-14.85 c 0.502,-0.868 1.607,-1.166 2.478,-0.665 l 15.836,9.138 c 0.416,0.241 0.721,0.637 0.844,1.102 0.125,0.465 0.061,0.96 -0.182,1.377 l -5.664,9.809 c -0.337,0.583 -0.946,0.909 -1.573,0.909 z"
   id="path23" />&#10;			</g>&#10;			<g
   id="g24">&#10;				<path
   style="fill:#eaceb5"
   d="m 271.74,144.968 c -0.154,0 -0.313,-0.02 -0.471,-0.063 -0.967,-0.259 -1.541,-1.254 -1.281,-2.222 l 4.438,-16.563 c 0.26,-0.967 1.248,-1.544 2.223,-1.283 l 17.66,4.729 c 0.465,0.124 0.861,0.429 1.102,0.846 0.24,0.417 0.307,0.912 0.182,1.377 l -2.934,10.942 c -0.26,0.967 -1.25,1.544 -2.223,1.282 l -9.688,-2.595 c -0.967,-0.259 -1.541,-1.253 -1.283,-2.222 l 1.424,-5.315 c 0.26,-0.968 1.246,-1.545 2.221,-1.284 0.969,0.259 1.543,1.254 1.283,2.222 l -0.953,3.563 6.184,1.657 1.994,-7.437 -14.156,-3.79 -3.969,14.811 c -0.218,0.81 -0.952,1.345 -1.753,1.345 z"
   id="path24" />&#10;			</g>&#10;			<g
   id="g25">&#10;				<path
   style="fill:#eaceb5"
   d="m 250.956,330.977 c -52.571,0 -95.34,-42.77 -95.34,-95.34 0,-52.57 42.77,-95.34 95.34,-95.34 52.569,0 95.339,42.77 95.339,95.34 0,52.57 -42.77,95.34 -95.339,95.34 z m 0,-187.053 c -50.57,0 -91.712,41.142 -91.712,91.712 0,50.57 41.142,91.711 91.712,91.711 50.569,0 91.712,-41.142 91.712,-91.711 0,-50.57 -41.143,-91.712 -91.712,-91.712 z"
   id="path25" />&#10;			</g>&#10;		</g>&#10;		<g
   id="g49">&#10;			&#10;				<circle
   transform="matrix(0.0167,-0.9999,0.9999,0.0167,11.1718,482.6319)"
   style="fill:#eaceb5"
   cx="250.95599"
   cy="235.636"
   id="ellipse26"
   r="87.085999" />&#10;			<g
   id="g48">&#10;				<path
   style="fill:#d1692f"
   d="m 227.347,124.77 c 8.708,-11.691 17.414,-21.206 17.414,-21.206 0,0 -24.628,-6.654 -49.255,6.033 0.746,5.473 2.736,16.418 2.736,16.418 l -5.97,-14.429 c 0,0 -15.671,10.199 -24.627,29.105 2.238,3.482 10.696,8.458 10.696,8.458 0,0 -9.702,-3.981 -11.941,-6.219 -6.965,17.911 -5.224,40.299 -3.98,48.01 8.458,1.493 9.702,1.991 9.702,1.991 l -9.702,0.497 c 0,0 2.239,8.21 6.966,12.687 18.408,3.234 19.153,-19.9 19.153,-19.9 0,0 6.966,-29.104 17.912,-38.558 10.946,-9.454 20.896,-22.887 20.896,-22.887 z"
   id="path26" />&#10;				<path
   style="fill:#f4a520"
   d="m 226.352,156.113 c 0,0 -9.95,-15.92 0.995,-31.344 -28.855,9.453 -51.493,35.573 -48.756,76.867 14.926,-0.497 43.035,-7.463 43.035,-7.463 z"
   id="path27" />&#10;				<path
   style="fill:#fde9d4"
   d="m 290.223,283.565 c -11.838,-1.381 -20.58,-3.748 -23.227,-0.463 -2.65,3.285 -5.072,23.263 -5.072,23.263 l -37.065,-11.07 6.428,-55.439 39.645,23.154 z"
   id="path28" />&#10;				<path
   style="fill:#eaceb5"
   d="m 270.932,263.009 -26.13,-15.26 c 0.396,3.129 2.139,14.125 7.595,19.977 3.369,3.617 11,9.228 18.154,13.805 4.191,-0.474 11.123,1.037 19.672,2.034 z"
   id="path29" />&#10;				<path
   style="fill:#d1692f"
   d="m 215.319,230.002 c -6.008,-5.21 -32.938,-16.071 -22.888,-48.063 10.05,-31.992 41.661,-36.443 56.422,-30.122 -6.205,25.296 -22.007,60.149 -22.007,60.149 z"
   id="path30" />&#10;				<path
   style="fill:#fde9d4"
   d="m 291.529,199.46 c 5.756,5.587 8.627,17.871 9.318,21.647 0.693,3.777 0.801,7.501 -0.354,9.218 -1.156,1.716 -0.662,4.012 -0.662,4.012 0,0 9.031,13.706 8.353,14.985 -0.682,1.277 -6.197,5.167 -6.197,5.167 0,0 -0.014,1.367 0.82,3.065 0.832,1.697 1.922,3.548 -1.186,5.945 0.723,2.78 0.738,4.686 -0.064,5.224 -0.801,0.54 -2.068,1.682 -2.133,2.017 -0.066,0.335 2.309,4.605 0.816,7.832 -1.49,3.227 -4.215,5.022 -8.926,5.267 -4.713,0.241 -28.453,-10.139 -35.875,-15.89 -7.424,-5.75 -10.941,-19.327 -10.941,-19.327 l 32.234,-53.208 z"
   id="path31" />&#10;				<path
   style="fill:#eaceb5"
   d="m 297.779,252.703 c -1.193,2.209 4.209,1.787 4.209,1.787 0,0 5.516,-3.89 6.197,-5.167 -4.482,-1.316 -9.21,1.169 -10.406,3.38 z"
   id="path32" />&#10;				<path
   style="fill:#4c2c1b"
   d="m 297.881,226.606 c 2.223,0.578 3.617,-2.176 2.66,-3.867 -0.957,-1.691 -3.377,-3.099 -8.496,-2.048 -5.658,1.161 -12.58,5.558 -12.242,6.099 0.34,0.543 9.611,-4.099 13.838,-4.068 4.228,0.032 1.845,3.261 4.24,3.884 z"
   id="path33" />&#10;				<path
   style="fill:#4c2c1b"
   d="m 264.15,222.689 c 3.926,10.633 -1.514,22.436 -12.145,26.36 -10.635,3.924 -22.437,-1.514 -26.361,-12.148 -3.925,-10.632 1.514,-22.433 12.146,-26.359 10.634,-3.924 22.435,1.513 26.36,12.147 z"
   id="path34" />&#10;				<path
   style="fill:#4c2c1b"
   d="m 279.277,215.081 c 2.725,7.381 -1.051,15.571 -8.43,18.296 -7.381,2.724 -15.572,-1.051 -18.296,-8.431 -2.725,-7.38 1.05,-15.571 8.431,-18.295 7.381,-2.724 15.571,1.05 18.295,8.43 z"
   id="path35" />&#10;				<path
   style="opacity:0.5;fill:#d1692f"
   d="m 302.234,258.497 c 0,0 -6.904,3.766 -8.949,4.853 3.867,0.734 8.338,0.151 8.338,0.151 2.184,-1.686 2.293,-3.102 1.877,-4.383 z"
   id="path36" />&#10;				<path
   style="opacity:0.5;fill:#d1692f"
   d="m 301.623,263.501 c 0.272,-0.21 0.51,-0.416 0.721,-0.618 l -9.059,0.467 c 0,0 4.219,4.873 8.521,4.977 0.033,-0.002 0.065,-0.005 0.096,-0.007 0.43,-0.825 0.317,-2.522 -0.279,-4.819 z"
   id="path37" />&#10;				<path
   style="fill:#4c2c1b"
   d="m 295.902,231.751 c 0,0 -3.492,-3.525 -14.738,-0.611 10.68,-4.847 18.469,-1.758 18.469,-1.758 z"
   id="path38" />&#10;				<path
   style="fill:#4c2c1b"
   d="m 295.908,231.471 c 0.072,1.389 -0.996,2.574 -2.387,2.645 -1.387,0.071 -2.572,-0.997 -2.643,-2.385 -0.072,-1.39 0.996,-2.575 2.385,-2.646 1.389,-0.072 2.573,0.996 2.645,2.386 z"
   id="path39" />&#10;				<path
   style="fill:#4c2c1b"
   d="m 200.73,195.916 c 0,0 -41.543,3.979 -64.677,-4.727 8.208,20.895 35.075,26.617 75.374,13.433 -1.492,-4.229 -10.697,-8.706 -10.697,-8.706 z"
   id="path40" />&#10;				<polygon
   style="fill:#d1692f"
   points="311.635,211.387 256.203,201.637 238.043,199.399 251.975,157.358 269.139,167.807 "
   id="polygon40" />&#10;				<path
   style="fill:#4c2c1b"
   d="m 215.589,205.313 c 0,0 -40.553,9.854 -64.691,4.53 11.1,19.514 38.508,21.352 76.519,2.564 -2.08,-3.973 -11.828,-7.094 -11.828,-7.094 z"
   id="path41" />&#10;				<path
   style="fill:#f4a520"
   d="m 247.188,194.423 c 5.023,-19.804 10.232,-30.689 19.654,-25.281 9.418,5.408 44.793,42.244 44.793,42.244 0,0 -31.318,-35.654 -41.037,-43.798 -9.717,-8.143 -26.077,-21.951 -26.077,-21.951 0,0 -8.958,-0.535 -9.721,19.618 -1.234,32.651 -17.656,54.21 -25.708,65.788 14.89,7.161 20.399,21.951 20.399,21.951 l 2.619,-18.749 c -0.521,-0.663 -1.676,-3.018 -2.067,-3.804 -3.038,-6.105 -0.638,-13.473 5.36,-16.456 5.998,-2.984 13.321,-0.454 16.359,5.65 1.474,2.961 1.657,6.217 0.782,9.127 l 59.09,-17.376 -41.471,-32.001 c 10e-4,0 -8.065,8.701 -22.975,15.038 z"
   id="path42" />&#10;				<path
   style="fill:#4c2c1b"
   d="m 223.019,211.249 c 0,0 -33.488,19.464 -56.372,21.093 15.024,14.436 38.546,10.465 67.417,-16.277 -2.899,-2.988 -11.045,-4.816 -11.045,-4.816 z"
   id="path43" />&#10;				<polygon
   style="fill:#8d6149"
   points="227.969,222.782 232.82,214.945 212.67,194.796 200.73,195.916 "
   id="polygon43" />&#10;				<path
   style="fill:#4c2c1b"
   d="m 260.93,242.558 c -6.469,8.21 -23.259,27.985 -16.915,39.367 6.343,11.38 18.47,1.118 12.5,-8.956 13.434,3.357 10.822,26.307 -9.888,25 14.366,6.344 20.522,-7.837 20.522,-7.837 0,0 4.479,20.523 -17.537,24.068 -22.015,3.546 -41.045,-25.746 -30.411,-47.762 -11.568,14.739 -1.679,30.598 -1.679,30.598 0,0 -38.247,-41.232 13.992,-59.516 8.768,-3.358 29.416,5.038 29.416,5.038 z"
   id="path44" />&#10;				<path
   style="fill:#8d6149"
   d="m 255.395,224.647 c 0,8.657 -7.017,15.672 -15.672,15.672 -8.655,0 -15.671,-7.015 -15.671,-15.672 0,-8.655 7.016,-15.671 15.671,-15.671 8.655,0 15.672,7.016 15.672,15.671 z"
   id="path45" />&#10;				<path
   style="fill:#f4a520"
   d="m 248.119,224.647 c 0,4.637 -3.759,8.395 -8.396,8.395 -4.637,0 -8.396,-3.758 -8.396,-8.395 0,-4.637 3.759,-8.395 8.396,-8.395 4.636,0 8.396,3.758 8.396,8.395 z"
   id="path46" />&#10;				<path
   style="fill:#4c2c1b"
   d="m 179.933,286.043 c 15.783,22.198 41.712,36.68 71.023,36.68 11.231,0 21.966,-2.127 31.823,-5.999 -0.143,-7.764 -2.772,-16.972 -11.865,-24.845 0,0 2.418,20.26 -16.934,24.795 -16.989,3.983 -38.402,-5.442 -53.824,-43.543 -7.171,-0.552 -16.328,6.048 -20.223,12.912 z"
   id="path47" />&#10;				<path
   style="fill:#4c2c1b"
   d="m 304.781,276.155 c 0.68,10.206 -5.369,19.579 -33.035,5.745 -1.066,1.729 -2.041,4.536 -2.041,4.536 0,0 16.369,13.052 16.674,28.775 11.738,-5.233 22.107,-12.984 30.416,-22.572 0.133,-5.218 -7.705,-13.536 -12.014,-16.484 z"
   id="path48" />&#10;			</g>&#10;		</g>&#10;	</g>&#10;</g>&#10;&#10;</svg>
